<svg xmlns="http://www.w3.org/2000/svg" width="200" height="50" fill="#323232" fill-rule="evenodd"><path d="M69.62 29.575c-4.05 0-7.452-.887-10.142-3.223-2.898-2.543-3.667-5.855-3.667-8.723 0-2 .62-5.5 3.46-8.102 2.13-1.952 4.938-3.134 9.344-3.134 1.833 0 2.927.118 4.288.296 1.124.148 2.07.414 2.957.503.325.03.444.177.444.355 0 .237-.1.6-.148 1.626-.06.976-.03 2.602-.1 3.194-.03.444-.1.68-.355.68-.237 0-.296-.237-.296-.65a4.22 4.22 0 0 0-1.153-2.72C73.288 8.64 70.98 7.84 68.26 7.84c-2.573 0-4.258.65-5.56 1.833-2.16 1.98-2.72 4.8-2.72 7.66 0 7.038 5.352 10.527 9.315 10.527 2.632 0 4.228-.296 5.4-1.656a4.93 4.93 0 0 0 1.005-1.952c.1-.473.148-.6.384-.6.207 0 .266.207.266.444 0 .355-.355 2.927-.65 3.933-.148.503-.266.65-.77.858-1.183.473-3.43.68-5.323.68zm20.6-6.742H84.1c-.148 0-.177.03-.237.177l-1.4 3.37c-.266.62-.384 1.242-.384 1.538 0 .444.237.7 1.035.7h.384c.325 0 .384.118.384.266 0 .207-.148.266-.414.266-.858 0-2.07-.1-2.898-.1-.266 0-1.656.1-3.016.1-.325 0-.473-.06-.473-.266 0-.148.1-.266.296-.266.237 0 .532-.03.77-.03 1.183-.177 1.626-.946 2.16-2.218l6.8-15.82c.296-.7.503-1.005.77-1.005.384 0 .503.237.77.798l6.624 15.495c1.005 2.277 1.745 2.602 2.218 2.7.384.06.68.1.976.1.237 0 .355.1.355.266 0 .207-.148.266-1.124.266-.917 0-2.8 0-4.997-.06-.473-.03-.77-.03-.77-.207 0-.148.06-.237.325-.266.177-.03.355-.266.237-.562l-2-5.056c-.06-.148-.148-.177-.266-.177zm-5.6-1.4h5.027c.118 0 .148-.06.118-.148l-2.454-6.387c-.03-.1-.06-.237-.118-.237-.1 0-.118.148-.148.237l-2.513 6.358c-.06.118 0 .177.1.177zm16.027 5.204l2.573-16.4c.06-.414.296-.65.503-.65.266 0 .444.118.798.798l6.978 14.016 6.978-14.194c.207-.414.444-.62.68-.62.207 0 .503.266.6.798l2.366 15.524c.237 1.567.473 2.247 1.272 2.484.74.207 1.153.237 1.478.237.237 0 .414.1.414.237 0 .207-.296.296-.68.296a208.11 208.11 0 0 1-5.382-.177c-.62-.03-.77-.148-.77-.296 0-.118.118-.207.296-.266.148-.06.207-.355.118-1.065l-1.45-10.882h-.1l-5.6 11.237c-.6 1.183-.74 1.42-1.035 1.42-.325 0-.62-.503-1.035-1.272l-2.987-5.707c-.207-.473-1.745-3.637-2.602-5.382h-.1l-1.242 9.817a8.17 8.17 0 0 0-.09 1.183c0 .473.355.65.798.74s.68.118.917.118.414.118.414.237c0 .237-.237.296-.62.296-1.094 0-2.277-.1-2.75-.1-.503 0-1.745.1-2.573.1-.266 0-.473-.06-.473-.296 0-.118.148-.237.414-.237.207 0 .384 0 .798-.06.7-.1.946-1.094 1.065-1.922zm36.43-3.815h-6.12c-.148 0-.177.03-.237.177l-1.4 3.37c-.266.62-.384 1.242-.384 1.538 0 .444.237.7 1.035.7h.384c.325 0 .384.118.384.266 0 .207-.148.266-.414.266-.858 0-2.07-.1-2.898-.1-.266 0-1.656.1-3.016.1-.325 0-.473-.06-.473-.266 0-.148.1-.266.296-.266.237 0 .532-.03.77-.03 1.183-.177 1.626-.946 2.16-2.218l6.8-15.82c.296-.7.503-1.005.77-1.005.384 0 .503.237.77.798l6.624 15.495c1.005 2.277 1.745 2.602 2.218 2.7.384.06.68.1.976.1.237 0 .355.1.355.266 0 .207-.148.266-1.124.266-.917 0-2.8 0-4.997-.06-.473-.03-.77-.03-.77-.207 0-.148.06-.237.325-.266.177-.03.355-.266.237-.562l-2-5.056c-.06-.148-.148-.177-.266-.177zm-5.6-1.4h5.027c.118 0 .148-.06.118-.148l-2.454-6.387c-.03-.1-.06-.237-.118-.237-.1 0-.118.148-.148.237l-2.513 6.358c-.06.118 0 .177.1.177zm17.032.414V17.4l-.03-5.323c-.06-.858-.296-1.124-1.124-1.36-.207-.06-.65-.1-1.035-.1-.266 0-.444-.1-.444-.266s.207-.237.6-.237c1.36 0 3.016.06 3.548.06.887 0 3.253-.06 4.05-.06 1.656 0 3.548.148 4.938 1.065.74.503 1.833 1.774 1.833 3.46 0 1.863-1.065 3.52-3.608 5.56 2.306 2.84 4.14 5.116 5.707 6.683 1.45 1.45 2.366 1.567 2.78 1.656a2.43 2.43 0 0 0 .621.059c.207 0 .325.148.325.266 0 .207-.177.266-.503.266h-2.484c-1.45 0-2.16-.148-2.84-.503-1.124-.562-2.1-1.745-3.548-3.696-1.035-1.36-2.13-3.046-2.454-3.43-.148-.148-.296-.177-.473-.177l-2.336-.06c-.118 0-.207.06-.207.207v.355c0 2.336.03 4.288.148 5.352.1.74.207 1.212 1.005 1.33a9.72 9.72 0 0 0 1.272.09c.207 0 .325.148.325.266 0 .177-.207.266-.532.266-1.508 0-3.667-.1-4.05-.1-.503 0-2.16.1-3.194.1-.325 0-.503-.1-.503-.266 0-.118.1-.266.414-.266a3.83 3.83 0 0 0 .917-.089c.532-.118.68-.6.77-1.33.118-1.065.118-3.046.118-5.352zm3.312-9.965v7.48c0 .266.06.355.237.444.562.177 1.33.237 1.98.237 1.035 0 1.4-.1 1.833-.414.798-.562 1.685-1.656 1.685-3.726 0-3.548-2.425-4.465-3.962-4.465-.65 0-1.272.03-1.538.1-.177.06-.237.148-.237.355zm19.3 9.965v-10.15l-3.874.1c-1.508.03-2.13.207-2.513.77a2.94 2.94 0 0 0-.444.858c-.06.207-.118.325-.296.325s-.237-.148-.237-.414c0-.414.503-2.84.562-3.046.06-.325.148-.473.296-.473.207 0 .473.207 1.124.296.77.1 1.745.118 2.602.118h10.556a11.56 11.56 0 0 0 1.774-.118c.414-.06.62-.118.7-.118.177 0 .207.148.207.532 0 .532-.06 2.395-.06 3.046-.03.266-.1.414-.237.414-.207 0-.266-.118-.296-.503l-.03-.266c-.06-.65-.74-1.42-3.075-1.45l-3.282-.06v10.172c0 2.306.03 4.288.148 5.382.1.7.237 1.183 1.005 1.3.355.06.946.1 1.33.1.296 0 .414.148.414.266 0 .177-.207.266-.503.266-1.715 0-3.46-.1-4.2-.1-.6 0-2.366.1-3.4.1-.325 0-.503-.1-.503-.266 0-.118.1-.266.414-.266.384 0 .7-.03.917-.1.532-.118.68-.6.77-1.33.118-1.065.118-3.046.118-5.352zm17.462 7.63c-1.508 0-3.105-.148-4.228-.65-.414-.177-.503-.296-.503-.858 0-1.36.118-2.927.148-3.34 0-.384.118-.65.325-.65.237 0 .266.237.266.414 0 .325.1.858.237 1.3.562 1.863 2.513 2.484 4.14 2.484 2.247 0 3.608-1.42 3.608-3.194 0-1.094-.266-2.188-2.573-3.548l-1.508-.887c-3.075-1.804-4.08-3.5-4.08-5.707 0-3.075 2.957-5.056 6.565-5.056 1.685 0 3.016.237 3.696.414.237.06.355.148.355.325 0 .325-.1 1.035-.1 3.016 0 .532-.118.798-.325.798-.177 0-.266-.148-.266-.444 0-.237-.118-1.005-.68-1.656-.384-.473-1.212-1.183-2.898-1.183-1.863 0-3.548.976-3.548 2.7 0 1.124.414 2 2.75 3.312l1.065.6c3.43 1.892 4.495 3.815 4.495 6.1 0 1.863-.7 3.37-2.602 4.702-1.242.887-2.957 1.035-4.347 1.035zm-130.03 10.65v-1.952l-.022-2.35c-.022-.377-.1-.554-.477-.632a2.28 2.28 0 0 0-.432-.033c-.122 0-.2-.022-.2-.1s.078-.1.244-.1l1.597.033 1.608-.033c1.386 0 1.885.466 2.063.632a1.93 1.93 0 0 1 .554 1.32c0 1.575-1.153 2.683-2.728 2.683-.055 0-.177 0-.233-.01s-.133-.022-.133-.1c0-.1.078-.122.3-.122.62 0 1.486-.7 1.486-1.83 0-.366-.033-1.1-.654-1.663a1.65 1.65 0 0 0-1.11-.432c-.166 0-.333.01-.432.044-.055.022-.1.1-.1.2v4.435L60 42.49c.033.3.1.554.432.6a4.67 4.67 0 0 0 .566.044c.122 0 .177.033.177.1 0 .078-.1.1-.2.1-.732 0-1.43-.033-1.72-.033l-1.397.033c-.144 0-.222-.033-.222-.1 0-.055.044-.1.177-.1a1.81 1.81 0 0 0 .399-.044c.222-.044.277-.288.322-.6.055-.466.055-1.342.055-2.362zm8.208-.843h3.68c.022 0 .055-.01.055-.067v-.2l-.022-2.074c-.022-.322-.1-.42-.42-.5-.078-.022-.244-.033-.377-.033-.1 0-.166-.033-.166-.1s.067-.1.2-.1l1.464.022 1.253-.022c.144 0 .2.022.2.1s-.067.1-.177.1a1.55 1.55 0 0 0-.288.033c-.255.044-.333.177-.355.5-.022.3-.022.566-.022 1.996v1.663l.044 2.018c.033.266.1.444.388.488.133.022.344.033.5.033.1 0 .155.055.155.1 0 .067-.078.1-.2.1-.632 0-1.275-.033-1.54-.033l-1.286.033c-.133 0-.2-.033-.2-.1 0-.044.044-.1.155-.1a1.44 1.44 0 0 0 .355-.033c.2-.044.255-.222.288-.5.044-.4.044-1.12.044-1.985v-.72c0-.033-.033-.055-.055-.055h-3.68c-.033 0-.067.01-.067.055v.72l.055 1.996c.033.266.1.444.377.488a3.65 3.65 0 0 0 .499.033c.1 0 .155.055.155.1 0 .067-.078.1-.2.1-.632 0-1.308-.033-1.586-.033l-1.253.033c-.122 0-.2-.033-.2-.1 0-.044.033-.1.155-.1a1.4 1.4 0 0 0 .344-.033c.2-.044.255-.222.288-.5.044-.4.044-1.142.044-2.007v-1.66l-.01-1.996c-.022-.322-.1-.42-.42-.5-.078-.022-.244-.033-.388-.033-.1 0-.166-.033-.166-.1s.078-.1.2-.1l1.43.022 1.297-.022c.133 0 .2.022.2.1s-.055.1-.177.1a1.43 1.43 0 0 0-.277.033c-.266.044-.344.177-.366.5-.022.3-.022.643-.022 2.074v.2c0 .055.033.067.067.067zm10.847 4.18c-2.84 0-3.992-2.018-3.992-3.693 0-1.608 1.13-3.693 4.092-3.693 2.462 0 3.992 1.364 3.992 3.526s-1.575 3.86-4.092 3.86zm.4-.5c.688 0 2.24-.322 2.24-3.005 0-2.085-1.253-3.37-2.828-3.37-1.087 0-2.362.577-2.362 2.905 0 1.94 1.1 3.47 2.95 3.47zm6.733-2.35v-3.815l-1.453.033c-.566.01-.798.078-.943.288a1.1 1.1 0 0 0-.166.322c-.022.078-.044.122-.1.122s-.1-.055-.1-.155c0-.155.2-1.065.2-1.142.022-.122.055-.177.1-.177.078 0 .177.078.42.1.288.033.654.044.976.044h3.96a4.32 4.32 0 0 0 .665-.044l.266-.044c.067 0 .078.055.078.2l-.022 1.142c-.01.1-.033.155-.1.155-.078 0-.1-.044-.1-.2l-.01-.1c-.022-.244-.277-.532-1.153-.543l-1.23-.022v3.815l.055 2.018c.033.266.1.444.377.488a3.65 3.65 0 0 0 .499.033c.1 0 .155.055.155.1 0 .067-.078.1-.2.1-.643 0-1.297-.033-1.575-.033l-1.275.033c-.122 0-.2-.033-.2-.1 0-.044.033-.1.155-.1.144 0 .266-.01.344-.033.2-.044.255-.222.288-.5.044-.4.044-1.142.044-2.007zm8.297 2.86c-2.84 0-3.992-2.018-3.992-3.693 0-1.608 1.13-3.693 4.092-3.693 2.462 0 3.992 1.364 3.992 3.526s-1.575 3.86-4.092 3.86zm.4-.5c.688 0 2.24-.322 2.24-3.005 0-2.085-1.253-3.37-2.828-3.37-1.087 0-2.362.577-2.362 2.905 0 1.94 1.1 3.47 2.95 3.47zm11.6-1.286V42.7c0 .255 0 .266-.122.333-.654.322-1.62.42-2.384.42-2.395 0-4.513-1.087-4.513-3.693 0-1.508.8-2.56 1.708-3.083.93-.543 1.807-.6 2.628-.6.676 0 1.53.1 1.73.155l.776.1c.1.01.133.044.133.1 0 .1-.067.366-.067 1.552 0 .144-.055.2-.133.2-.067 0-.1-.044-.1-.122-.022-.2-.078-.5-.333-.776-.288-.3-1.02-.72-2.118-.72-.532 0-1.2.01-1.885.554-.543.444-.898 1.142-.898 2.295 0 2.03 1.308 3.504 3.393 3.504.255 0 .455 0 .688-.1.144-.067.2-.166.2-.333v-.865l-.01-1.1c-.01-.322-.1-.42-.42-.5-.078-.022-.244-.033-.377-.033-.1 0-.155-.044-.155-.1 0-.078.078-.1.2-.1l1.497.022 1.142-.022c.133 0 .2.01.2.1 0 .055-.055.1-.122.1a1.33 1.33 0 0 0-.266.033c-.266.044-.366.177-.377.5l-.01 1.13zm2.52-1.065V38.93l-.01-1.996c-.022-.322-.1-.42-.42-.5-.078-.022-.244-.033-.388-.033-.1 0-.166-.033-.166-.1s.078-.1.222-.1l1.33.022 1.52-.022c.62 0 1.33.055 1.852.4.277.2.688.665.688 1.297 0 .7-.4 1.32-1.353 2.085l2.14 2.506c.543.543.887.588 1.042.62a.92.92 0 0 0 .233.022c.078 0 .122.055.122.1 0 .078-.067.1-.2.1h-.93c-.543 0-.8-.055-1.065-.2-.42-.2-.787-.654-1.33-1.386l-.92-1.286c-.055-.055-.1-.067-.177-.067l-.876-.022c-.044 0-.078.022-.078.078v.133l.055 2.007c.033.277.078.455.377.5a3.7 3.7 0 0 0 .477.033c.078 0 .122.055.122.1 0 .067-.078.1-.2.1-.566 0-1.375-.033-1.52-.033l-1.198.033c-.122 0-.2-.033-.2-.1 0-.044.033-.1.155-.1a1.4 1.4 0 0 0 .344-.033c.2-.044.255-.222.288-.5.044-.4.044-1.142.044-2.007zm1.242-3.737v2.805c0 .1.022.133.1.166.2.067.5.1.743.1.388 0 .52-.033.688-.155.3-.2.632-.62.632-1.397 0-1.33-.9-1.674-1.486-1.674-.244 0-.477.01-.577.033-.067.022-.1.055-.1.133zm8.873 4.103h-2.295c-.055 0-.067.01-.1.067l-.52 1.264c-.1.233-.144.466-.144.577 0 .166.1.266.388.266h.144c.122 0 .144.044.144.1 0 .078-.055.1-.155.1-.322 0-.776-.033-1.087-.033l-1.13.033c-.122 0-.177-.022-.177-.1 0-.055.033-.1.1-.1l.288-.01c.444-.067.6-.355.8-.832l2.55-5.932c.1-.266.2-.377.288-.377.144 0 .2.1.288.3l2.484 5.8c.377.854.654.976.832 1a2.35 2.35 0 0 0 .366.033c.1 0 .133.033.133.1 0 .078-.055.1-.42.1-.344 0-1.053 0-1.874-.022-.177-.01-.288-.01-.288-.078 0-.055.022-.1.122-.1.067-.01.133-.1.1-.2l-.754-1.896c-.022-.055-.055-.067-.1-.067zm-2.096-.52h1.885c.044 0 .055-.022.044-.055l-.92-2.395c-.01-.033-.022-.1-.044-.1-.033 0-.044.055-.055.1l-.943 2.384c-.022.044 0 .067.033.067zm6.18.155V38.93l-.01-1.996c-.022-.322-.1-.42-.42-.5-.078-.022-.244-.033-.388-.033-.1 0-.166-.033-.166-.1s.078-.1.222-.1l1.408.022 1.62-.022c1.22 0 1.663.4 1.82.532.2.2.488.62.488 1.13 0 1.33-1.065 2.284-2.45 2.284-.044 0-.244 0-.288-.01-.055 0-.122-.033-.122-.1 0-.078.1-.122.322-.122.543 0 1.308-.566 1.308-1.53 0-.3-.033-.93-.577-1.397-.355-.3-.754-.355-.976-.355-.144 0-.333.01-.42.044-.055.022-.078.078-.078.177V40.6l.044 2.018c.033.266.1.444.377.488a3.77 3.77 0 0 0 .499.033c.1 0 .155.055.155.1 0 .067-.078.1-.177.1-.654 0-1.342-.033-1.597-.033l-1.23.033c-.122 0-.2-.033-.2-.1 0-.044.033-.1.155-.1a1.4 1.4 0 0 0 .344-.033c.2-.044.255-.222.288-.5.044-.4.044-1.142.044-2.007zm7.776-1.32h3.68c.022 0 .055-.01.055-.067v-.2l-.022-2.074c-.022-.322-.1-.42-.42-.5-.078-.022-.244-.033-.377-.033-.1 0-.166-.033-.166-.1s.067-.1.2-.1l1.464.022 1.253-.022c.144 0 .2.022.2.1s-.067.1-.177.1a1.55 1.55 0 0 0-.288.033c-.255.044-.333.177-.355.5-.022.3-.022.566-.022 1.996v1.663l.044 2.018c.033.266.1.444.388.488.133.022.344.033.5.033.1 0 .155.055.155.1 0 .067-.078.1-.2.1-.632 0-1.275-.033-1.54-.033l-1.286.033c-.133 0-.2-.033-.2-.1 0-.044.044-.1.155-.1a1.44 1.44 0 0 0 .355-.033c.2-.044.255-.222.288-.5.044-.4.044-1.12.044-1.985v-.72c0-.033-.033-.055-.055-.055h-3.68c-.033 0-.067.01-.067.055v.72l.055 1.996c.033.266.1.444.377.488a3.65 3.65 0 0 0 .499.033c.1 0 .155.055.155.1 0 .067-.078.1-.2.1-.632 0-1.308-.033-1.586-.033l-1.253.033c-.122 0-.2-.033-.2-.1 0-.044.033-.1.155-.1a1.4 1.4 0 0 0 .344-.033c.2-.044.255-.222.288-.5.044-.4.044-1.142.044-2.007v-1.68l-.01-1.996c-.022-.322-.1-.42-.42-.5-.078-.022-.244-.033-.388-.033-.1 0-.166-.033-.166-.1s.078-.1.2-.1l1.43.022 1.297-.022c.133 0 .2.022.2.1s-.055.1-.177.1a1.43 1.43 0 0 0-.277.033c-.266.044-.344.177-.366.5-.022.3-.022.643-.022 2.074v.2c0 .055.033.067.067.067zm9.084 2.384V40.9a1.94 1.94 0 0 0-.222-.987c-.067-.144-1.397-2.218-1.74-2.717-.244-.344-.444-.566-.632-.665a.97.97 0 0 0-.41-.122c-.078 0-.144-.033-.144-.1s.067-.1.2-.1l1.22.022 1.1-.022c.1 0 .144.022.144.1 0 .078-.067.078-.222.122-.078.022-.133.067-.133.144s.044.2.122.322l1.62 2.76 1.453-2.528c.1-.2.144-.377.144-.5 0-.1-.044-.177-.2-.2-.1-.022-.177-.033-.177-.1 0-.067.055-.1.166-.1l.954.022 1.042-.022c.1 0 .177.022.177.078 0 .067-.078.1-.2.1a1.19 1.19 0 0 0-.421.111c-.2.1-.3.2-.5.444-.322.377-1.72 2.617-1.896 3.016-.144.344-.122.632-.122.943v.754l.022.943c.022.277.1.455.4.5.144.022.355.033.488.033.1 0 .166.055.166.1 0 .067-.078.1-.2.1-.6 0-1.264-.033-1.53-.033l-1.264.033c-.133 0-.2-.022-.2-.1 0-.044.044-.1.155-.1a1.5 1.5 0 0 0 .344-.033c.2-.044.277-.222.3-.5l.033-.943z" fill-rule="nonzero"/><path d="M36.505 3.205C31.456.585 26.4-.23 21.303.76c-4.448 2.827-7.623 7.7-9.526 14.648 3.097-4.644 6.54-7.9 10.33-9.8s8.6-2.7 14.398-2.402zm-19.385-1.7C11.76 3.42 7.707 6.57 4.962 10.965c-.966 5.18.44 10.833 4.216 16.957-1.284-5.432-1.325-10.178-.122-14.24s3.9-8.117 8.063-12.168zM2.65 15.294C.573 20.6.292 25.714 1.807 30.67c3.276 4.128 8.464 6.776 15.564 7.943-4.942-2.595-8.55-5.678-10.826-9.25s-3.575-8.26-3.895-14.07zm.673 19.646c2.545 5.087 6.165 8.725 10.86 10.915 5.26.328 10.7-1.756 16.317-6.25-5.235 1.936-9.94 2.555-14.118 1.857s-8.53-2.872-13.06-6.52zm15.865 12.93c5.533 1.32 10.647.886 15.342-1.304 3.632-3.82 5.532-9.325 5.7-16.518-1.882 5.255-4.432 9.258-7.652 12.008s-7.683 4.7-13.4 5.814zm19.926-3.816c4.626-3.3 7.653-7.454 9.08-12.435-.5-5.246-3.408-10.292-8.727-15.138 2.73 4.867 4.08 9.42 4.042 13.654S42.007 39 39.112 44.055zM48.4 18.282c-1.527-5.48-4.387-9.74-8.58-12.786-5.1-1.325-10.837-.318-17.2 3.023 5.508-.902 10.246-.612 14.213.87s7.826 4.447 11.576 8.892z"/></svg>