<?xml version="1.0" standalone="no"?>
<!DOCTYPE svg PUBLIC "-//W3C//DTD SVG 20010904//EN"
 "http://www.w3.org/TR/2001/REC-SVG-20010904/DTD/svg10.dtd">
<svg version="1.0" xmlns="http://www.w3.org/2000/svg"
 width="650.000000pt" height="650.000000pt" viewBox="0 0 650.000000 650.000000"
 preserveAspectRatio="xMidYMid meet">

<g transform="translate(0.000000,650.000000) scale(0.100000,-0.100000)"
fill="#000000" stroke="none">
<path d="M3005 6484 c-16 -2 -77 -9 -135 -15 -622 -66 -1241 -337 -1736 -759
-76 -65 -236 -223 -317 -314 -395 -439 -675 -1023 -770 -1606 -44 -268 -57
-659 -29 -890 94 -778 427 -1458 970 -1981 520 -502 1130 -793 1872 -895 157
-22 584 -25 740 -6 739 91 1385 391 1892 880 299 288 498 561 678 927 160 325
244 600 302 980 19 129 22 190 23 435 0 345 -17 492 -91 795 -89 361 -236 694
-447 1010 -452 676 -1146 1164 -1929 1354 -275 66 -402 82 -723 86 -148 2
-283 1 -300 -1z m35 -1619 c0 -3 -142 -193 -316 -422 -174 -230 -344 -455
-378 -500 l-61 -82 -467 -1 c-258 0 -468 3 -468 6 0 3 222 230 493 505 l492
499 353 0 c193 0 352 -2 352 -5z m1618 -492 c269 -274 493 -501 498 -506 4 -4
-206 -6 -466 -5 l-474 3 -160 210 c-323 426 -583 770 -590 783 -6 9 66 12 347
12 l355 0 490 -497z m-1039 -43 l350 -465 -349 -3 c-193 -1 -508 -1 -700 0
l-350 3 342 468 c188 257 345 466 349 465 4 -2 165 -212 358 -468z m-1362
-692 c6 -7 74 -197 152 -423 79 -225 264 -758 412 -1184 148 -425 268 -775
266 -777 -1 -2 -57 70 -124 159 -66 89 -253 340 -415 557 -162 217 -440 591
-618 830 -178 239 -390 524 -472 633 -81 108 -148 202 -148 207 0 6 182 9 469
10 367 0 470 -2 478 -12z m1773 -3 c0 -8 -40 -138 -89 -288 -49 -149 -142
-434 -206 -632 -64 -198 -150 -461 -190 -585 -41 -124 -120 -367 -176 -540
-87 -271 -119 -358 -119 -327 0 4 -61 197 -136 429 -75 233 -156 486 -181 563
-173 541 -443 1386 -443 1390 0 3 347 5 770 5 679 0 770 -2 770 -15z m1162 9
c4 -3 -71 -110 -166 -237 -94 -128 -406 -548 -691 -935 -675 -914 -663 -897
-784 -1061 -57 -78 -105 -140 -107 -138 -4 4 56 183 251 752 70 204 157 460
195 570 161 473 349 1021 355 1038 7 16 39 17 474 17 257 0 470 -3 473 -6z"/>
</g>
</svg>
