<svg xmlns="http://www.w3.org/2000/svg"><style>path{fill:#000}@media(prefers-color-scheme:dark){path{fill:#fff}}</style><path d="M341.9 9.5c-.2.1-4.1.6-8.6.9-4.5.4-9.2.9-10.5 1.2-1.3.2-4.3.7-6.8 1-9.3 1.1-13.4 2.6-20.4 7.3-12.1 8.2-22.5 16.9-34.7 29-20.1 20.1-30 33.1-49.2 64.6-3.6 6-20.5 41.2-24 50l-9.8 26.5c-3.2 9.3-8.9 28.3-8.9 29.6 0 .4 3.6-4.4 8-10.6l9.3-13c.6-.8 2.8-3.5 4.7-6l5-6.4c.8-1.1 6.7-8 13.1-15.5 40.2-46.8 86.1-79.9 135.8-97.7 9.9-3.5 35.3-10.8 40.6-11.7 1.7-.3 4.1-.8 5.5-1.1s3.6-.8 5-1l4.5-.9c3.7-.8 9-1.6 14-2.2 2.8-.4 6.1-.8 7.5-1.1 1.4-.2 5-.6 8-.9l9.5-1c11.8-1.3 27.7-1.8 51.3-1.7 14.5 0 26.2-.2 25.9-.4-1.3-1.3-20.7-10.1-33.4-15.2C454 21.5 422.6 13.5 394 10.5c-6.8-.7-51.5-1.6-52.1-1zM237.5 27.7C169 53.6 116.8 93.2 78.7 148.2c-6.4 9.2-6.9 10.3-8.2 18.5-1.9 12-2.7 22.7-2.8 36.3 0 10.7.9 28.6 1.8 33.2.3 1.1.7 4.6 1.1 7.7.3 3.1.8 5.8.9 6.1.2.3.6 2.6 1 5 1.4 9.6 10.6 44.1 13.5 50.5.5 1.1 3.2 8.1 6.2 15.5 4.7 12.2 19.3 42.7 26.5 55.5 5.8 10.4 11.6 19.6 12 19.2.2-.3-.1-2.4-.6-4.8-.6-2.4-1.7-7.3-2.5-10.9-1.9-8.3-6.3-35.4-7.1-44.5-.4-3.9-.9-7.9-1.1-9-.8-3.9-1.8-27.2-1.8-40 .1-69.9 18.7-126.2 61.3-186.4 14.6-20.5 31.7-40.7 52.5-61.9C238 31.5 243 26 242.5 26.1c-.6.1-2.8.8-5 1.6zm256.2 45.9c-.1.1-5.2.4-11.3.8l-13 1c-1.1.2-4.1.7-6.9 1-38.1 5.1-78.9 18.1-124.2 39.6-7.3 3.5-13.3 6.7-13.3 7.2s.8.7 1.8.4c.9-.3 4.1-.8 7.1-1.1l7-1c1.7-.3 12.7-1.6 17.6-2 18.7-1.6 26.2-2 46-2 20.8 0 33.6.6 46.5 2.1 4.8.5 26.1 4 29.5 4.8 16.1 3.7 21.7 5.2 31 8.2 38.1 12.4 73.8 33 110.5 63.7 13.6 11.4 40.5 37.5 51.5 50.2 10.4 11.9 13.9 15.3 13 13-.4-1.1-2-6.5-3.7-12-1.6-5.5-3.5-11.4-4.3-13-.7-1.7-3.2-8-5.5-14-2.4-6.1-7.2-16.9-10.7-24-6.1-12.1-16.9-31.4-18.4-32.5-.3-.3-1.2-1.6-1.9-3-1.8-3.5-14.3-20.1-21.3-28.5-14.1-16.6-32.9-34.4-48.9-46.4-5.1-3.8-10.9-6.1-18.8-7.6-9.5-1.7-22.7-3.5-29.7-4.1-7.1-.5-29.1-1.1-29.6-.8zM38 221.2c0 .3-1.6 5.2-3.6 10.9-7.7 22-13.7 44.6-16 59.9-.3 1.9-.7 4.2-.9 5-.3.8-.7 4.4-1.1 8-.3 3.6-.8 6.8-1 7.1-.6 1-1.8 25.5-1.8 36.4 0 9.5 1.1 29.5 1.8 33.3.2.9.7 3.9 1 6.7 1.3 9.7 1.6 11.3 4 22.5 5.3 24.9 6.2 26.7 21.4 42.4 37.4 38.6 87 66.1 149.7 83.1 23.2 6.3 54.5 12.8 54.5 11.3 0-.4-.4-.8-.8-.8-.5 0-6-2.8-12.3-6.3-56-31-101.7-70-131.6-112.3-21.6-30.6-37.4-66.6-48.2-109.9-1.6-6.6-3.4-14.7-4-18l-1.5-8c-.8-4.2-3.5-21.2-4-25-2.2-16.9-2.6-20.9-3.1-27.5-.6-9.7-1.6-18.4-2.1-18.9-.2-.2-.4-.2-.4.1zm535.4 40c11.8 23.6 20.8 45.2 27.4 65.8 6.3 19.6 12 43.3 13.8 58l1 7.5c2.4 16.6 2.4 55.2 0 68.5-.3 1.4-.7 4.7-1.1 7.3-.5 4.3-1.3 8.7-3 16.7-.2 1.4-1 5-1.6 8-3 15.1-13 46.1-21.1 65.5-5.7 13.6-21.4 45.9-28.4 58.4l-4.7 8.3 6-4.1c15.5-10.9 42.9-35.8 54.9-49.7l7.7-8.7c23.1-26.5 45.8-67.7 57.1-103.6 2.6-8.3 2.8-13.8 1-23.6l-1-5.5c-2.1-12-7.3-30.8-11.9-43.2-4.7-12.7-5.7-15-13.5-30.3-15.5-30.5-34.4-57.2-60.5-85.4-8.4-9.1-31.8-32.1-32.6-32.1-.4 0 4.4 10 10.5 22.2zm-5.8 176.5c-7.4 20-25.1 58.2-32.3 69.6-1.3 2.1-3.6 6-5 8.5-2.5 4.5-10.8 17.3-18.1 27.7-7.8 11.1-20.4 25.7-33.2 38.5-35 35-78.9 60.5-136.5 79.3-19.3 6.3-53.5 15.3-64.3 17-6.9 1-.9 2.6 26.8 7.2l15 2c3.6.4 7.4.9 8.5 1.2 3.6.8 46.8 1 55.5.3 33.5-3 61.4-9.6 93-22.2 11.6-4.6 12.9-5.4 18.3-11.1 25.1-26.6 48-69.5 60.1-112.7 4.3-15.4 9.8-42 11.2-54 .3-3 .8-6.2.9-7.1.2-.9.6-5.2 1-9.5s.8-9 1.1-10.4c.6-3.8 1.7-32 1.3-32-.3 0-1.7 3.5-3.3 7.7zm-514 69c22.5 41.6 52.2 78.3 84.3 103.9l3.5 3c6.9 6.4 32.9 23 49.4 31.6l11.6 6 16.5-.1c9.1 0 17.7-.3 19.1-.5 1.4-.3 5.2-.7 8.5-1 3.3-.4 7.1-.8 8.5-1.1 1.4-.2 4.1-.7 6-.9 9.5-1.4 26.1-5.6 40.5-10.2 33.3-10.8 71.3-30.5 105-54.5 28.2-20.1 28.8-20.7 13-15.3-12 4.1-42.5 13-48.2 14l-9.2 2.1c-3.6.8-7.5 1.7-8.6 1.8l-8.3 1.5-9 1.5c-24.4 3.3-31.9 3.8-52.2 3.9-16.8.1-31.4-.7-38-1.8-1.4-.3-4.7-.7-7.5-1-18-2-56.2-13.1-76-22.2l-12.7-5.7c-18-8.2-44.9-23.9-65.3-38.1-12-8.4-32.4-23.6-33.1-24.7-.3-.5-1-.9-1.5-.9-.6 0 1.1 3.9 3.7 8.7z"/></svg>